<svg width="226" height="73" viewBox="0 0 226 73" fill="none" xmlns="http://www.w3.org/2000/svg">
<g clip-path="url(#clip0_1_37)">
<rect width="226" height="73" fill="#F6F6F6"/>
<path d="M30.6 30.85C31.3667 29.55 32.45 28.5167 33.85 27.75C35.25 26.9833 36.9 26.6 38.8 26.6C41.0333 26.6 43.05 27.1833 44.85 28.35C46.6833 29.5167 48.1167 31.1833 49.15 33.35C50.2167 35.5167 50.75 38.05 50.75 40.95C50.75 43.85 50.2167 46.4 49.15 48.6C48.1167 50.7667 46.6833 52.4333 44.85 53.6C43.05 54.7667 41.0333 55.35 38.8 55.35C36.9 55.35 35.25 54.9667 33.85 54.2C32.4833 53.4333 31.4 52.4 30.6 51.1V68.4H20.8V26.95H30.6V30.85ZM40.8 40.95C40.8 39.1167 40.3 37.7 39.3 36.7C38.3333 35.6667 37.1333 35.15 35.7 35.15C34.2667 35.15 33.05 35.6667 32.05 36.7C31.0833 37.7333 30.6 39.15 30.6 40.95C30.6 42.7833 31.0833 44.2167 32.05 45.25C33.05 46.2833 34.2667 46.8 35.7 46.8C37.1333 46.8 38.3333 46.2833 39.3 45.25C40.3 44.1833 40.8 42.75 40.8 40.95ZM67.8344 55.35C65.0344 55.35 62.5177 54.7667 60.2844 53.6C58.0844 52.4333 56.351 50.7667 55.0844 48.6C53.8177 46.4333 53.1844 43.8833 53.1844 40.95C53.1844 38.05 53.8177 35.5167 55.0844 33.35C56.3844 31.1833 58.1344 29.5167 60.3344 28.35C62.5677 27.1833 65.0844 26.6 67.8844 26.6C70.6844 26.6 73.1844 27.1833 75.3844 28.35C77.6177 29.5167 79.3677 31.1833 80.6344 33.35C81.9344 35.5167 82.5844 38.05 82.5844 40.95C82.5844 43.85 81.9344 46.4 80.6344 48.6C79.3677 50.7667 77.6177 52.4333 75.3844 53.6C73.151 54.7667 70.6344 55.35 67.8344 55.35ZM67.8344 46.85C69.201 46.85 70.3344 46.35 71.2344 45.35C72.1677 44.3167 72.6344 42.85 72.6344 40.95C72.6344 39.05 72.1677 37.6 71.2344 36.6C70.3344 35.6 69.2177 35.1 67.8844 35.1C66.551 35.1 65.4344 35.6 64.5344 36.6C63.6344 37.6 63.1844 39.05 63.1844 40.95C63.1844 42.8833 63.6177 44.35 64.4844 45.35C65.351 46.35 66.4677 46.85 67.8344 46.85ZM96.3715 18V55H86.5715V18H96.3715ZM106.902 24.35C105.169 24.35 103.769 23.8833 102.702 22.95C101.669 21.9833 101.152 20.7833 101.152 19.35C101.152 17.8833 101.669 16.6667 102.702 15.7C103.769 14.7333 105.169 14.25 106.902 14.25C108.602 14.25 109.969 14.7333 111.002 15.7C112.069 16.6667 112.602 17.8833 112.602 19.35C112.602 20.7833 112.069 21.9833 111.002 22.95C109.969 23.8833 108.602 24.35 106.902 24.35ZM111.752 26.95V55H101.952V26.95H111.752ZM129.283 55.35C126.75 55.35 124.483 54.9333 122.483 54.1C120.517 53.2333 118.95 52.0667 117.783 50.6C116.65 49.1 116.017 47.4167 115.883 45.55H125.383C125.517 46.45 125.933 47.15 126.633 47.65C127.333 48.15 128.2 48.4 129.233 48.4C130.033 48.4 130.667 48.2333 131.133 47.9C131.6 47.5667 131.833 47.1333 131.833 46.6C131.833 45.9 131.45 45.3833 130.683 45.05C129.917 44.7167 128.65 44.35 126.883 43.95C124.883 43.55 123.217 43.1 121.883 42.6C120.55 42.1 119.383 41.2833 118.383 40.15C117.417 39.0167 116.933 37.4833 116.933 35.55C116.933 33.8833 117.383 32.3833 118.283 31.05C119.183 29.6833 120.5 28.6 122.233 27.8C124 27 126.117 26.6 128.583 26.6C132.25 26.6 135.133 27.5 137.233 29.3C139.333 31.1 140.55 33.4667 140.883 36.4H132.033C131.867 35.5 131.467 34.8167 130.833 34.35C130.233 33.85 129.417 33.6 128.383 33.6C127.583 33.6 126.967 33.75 126.533 34.05C126.133 34.35 125.933 34.7667 125.933 35.3C125.933 35.9667 126.317 36.4833 127.083 36.85C127.85 37.1833 129.083 37.5333 130.783 37.9C132.817 38.3333 134.5 38.8167 135.833 39.35C137.2 39.8833 138.383 40.75 139.383 41.95C140.417 43.1167 140.933 44.7167 140.933 46.75C140.933 48.3833 140.45 49.85 139.483 51.15C138.55 52.45 137.2 53.4833 135.433 54.25C133.7 54.9833 131.65 55.35 129.283 55.35ZM182.401 26.7C185.935 26.7 188.701 27.7667 190.701 29.9C192.735 32.0333 193.751 34.95 193.751 38.65V55H183.951V39.95C183.951 38.45 183.535 37.2833 182.701 36.45C181.868 35.6167 180.735 35.2 179.301 35.2C177.868 35.2 176.735 35.6167 175.901 36.45C175.068 37.2833 174.651 38.45 174.651 39.95V55H164.851V39.95C164.851 38.45 164.435 37.2833 163.601 36.45C162.801 35.6167 161.685 35.2 160.251 35.2C158.785 35.2 157.635 35.6167 156.801 36.45C155.968 37.2833 155.551 38.45 155.551 39.95V55H145.751V26.95H155.551V30.65C156.418 29.45 157.535 28.5 158.901 27.8C160.301 27.0667 161.901 26.7 163.701 26.7C165.768 26.7 167.601 27.15 169.201 28.05C170.835 28.95 172.118 30.2167 173.051 31.85C174.051 30.3167 175.368 29.0833 177.001 28.15C178.635 27.1833 180.435 26.7 182.401 26.7Z" fill="black"/>
<path d="M113 19C113 22.3137 110.09 25 106.5 25C102.91 25 100 22.3137 100 19C100 15.6863 102.91 13 106.5 13C110.09 13 113 15.6863 113 19Z" fill="#90C7BD"/>
<path d="M129.248 64.072C128.885 64.072 128.56 64.008 128.272 63.88C127.984 63.7467 127.755 63.568 127.584 63.344C127.419 63.12 127.328 62.872 127.312 62.6H128.44C128.461 62.7707 128.544 62.912 128.688 63.024C128.837 63.136 129.021 63.192 129.24 63.192C129.453 63.192 129.619 63.1493 129.736 63.064C129.859 62.9787 129.92 62.8693 129.92 62.736C129.92 62.592 129.845 62.4853 129.696 62.416C129.552 62.3413 129.32 62.2613 129 62.176C128.669 62.096 128.397 62.0133 128.184 61.928C127.976 61.8427 127.795 61.712 127.64 61.536C127.491 61.36 127.416 61.1227 127.416 60.824C127.416 60.5787 127.485 60.3547 127.624 60.152C127.768 59.9493 127.971 59.7893 128.232 59.672C128.499 59.5547 128.811 59.496 129.168 59.496C129.696 59.496 130.117 59.6293 130.432 59.896C130.747 60.1573 130.92 60.512 130.952 60.96H129.88C129.864 60.784 129.789 60.6453 129.656 60.544C129.528 60.4373 129.355 60.384 129.136 60.384C128.933 60.384 128.776 60.4213 128.664 60.496C128.557 60.5707 128.504 60.6747 128.504 60.808C128.504 60.9573 128.579 61.072 128.728 61.152C128.877 61.2267 129.109 61.304 129.424 61.384C129.744 61.464 130.008 61.5467 130.216 61.632C130.424 61.7173 130.603 61.8507 130.752 62.032C130.907 62.208 130.987 62.4427 130.992 62.736C130.992 62.992 130.92 63.2213 130.776 63.424C130.637 63.6267 130.435 63.7867 130.168 63.904C129.907 64.016 129.6 64.072 129.248 64.072ZM133.879 64.072C133.453 64.072 133.069 63.9787 132.727 63.792C132.386 63.6 132.117 63.3307 131.919 62.984C131.727 62.6373 131.631 62.2373 131.631 61.784C131.631 61.3307 131.73 60.9307 131.927 60.584C132.13 60.2373 132.405 59.9707 132.751 59.784C133.098 59.592 133.485 59.496 133.911 59.496C134.338 59.496 134.725 59.592 135.071 59.784C135.418 59.9707 135.69 60.2373 135.887 60.584C136.09 60.9307 136.191 61.3307 136.191 61.784C136.191 62.2373 136.087 62.6373 135.879 62.984C135.677 63.3307 135.399 63.6 135.047 63.792C134.701 63.9787 134.311 64.072 133.879 64.072ZM133.879 63.096C134.082 63.096 134.271 63.048 134.447 62.952C134.629 62.8507 134.773 62.7013 134.879 62.504C134.986 62.3067 135.039 62.0667 135.039 61.784C135.039 61.3627 134.927 61.04 134.703 60.816C134.485 60.5867 134.215 60.472 133.895 60.472C133.575 60.472 133.306 60.5867 133.087 60.816C132.874 61.04 132.767 61.3627 132.767 61.784C132.767 62.2053 132.871 62.5307 133.079 62.76C133.293 62.984 133.559 63.096 133.879 63.096ZM138.133 58.08V64H137.013V58.08H138.133ZM143.424 59.568V64H142.296V63.44C142.152 63.632 141.962 63.784 141.728 63.896C141.498 64.0027 141.248 64.056 140.976 64.056C140.629 64.056 140.322 63.984 140.056 63.84C139.789 63.6907 139.578 63.4747 139.424 63.192C139.274 62.904 139.2 62.5627 139.2 62.168V59.568H140.32V62.008C140.32 62.36 140.408 62.632 140.584 62.824C140.76 63.0107 141 63.104 141.304 63.104C141.613 63.104 141.856 63.0107 142.032 62.824C142.208 62.632 142.296 62.36 142.296 62.008V59.568H143.424ZM145.833 60.488V62.632C145.833 62.7813 145.867 62.8907 145.937 62.96C146.011 63.024 146.134 63.056 146.305 63.056H146.825V64H146.121C145.177 64 144.705 63.5413 144.705 62.624V60.488H144.177V59.568H144.705V58.472H145.833V59.568H146.825V60.488H145.833ZM148.198 59.04C148.001 59.04 147.835 58.9787 147.702 58.856C147.574 58.728 147.51 58.5707 147.51 58.384C147.51 58.1973 147.574 58.0427 147.702 57.92C147.835 57.792 148.001 57.728 148.198 57.728C148.395 57.728 148.558 57.792 148.686 57.92C148.819 58.0427 148.886 58.1973 148.886 58.384C148.886 58.5707 148.819 58.728 148.686 58.856C148.558 58.9787 148.395 59.04 148.198 59.04ZM148.75 59.568V64H147.63V59.568H148.75ZM151.825 64.072C151.398 64.072 151.014 63.9787 150.673 63.792C150.331 63.6 150.062 63.3307 149.865 62.984C149.673 62.6373 149.577 62.2373 149.577 61.784C149.577 61.3307 149.675 60.9307 149.873 60.584C150.075 60.2373 150.35 59.9707 150.697 59.784C151.043 59.592 151.43 59.496 151.857 59.496C152.283 59.496 152.67 59.592 153.017 59.784C153.363 59.9707 153.635 60.2373 153.833 60.584C154.035 60.9307 154.137 61.3307 154.137 61.784C154.137 62.2373 154.033 62.6373 153.825 62.984C153.622 63.3307 153.345 63.6 152.993 63.792C152.646 63.9787 152.257 64.072 151.825 64.072ZM151.825 63.096C152.027 63.096 152.217 63.048 152.393 62.952C152.574 62.8507 152.718 62.7013 152.825 62.504C152.931 62.3067 152.985 62.0667 152.985 61.784C152.985 61.3627 152.873 61.04 152.649 60.816C152.43 60.5867 152.161 60.472 151.841 60.472C151.521 60.472 151.251 60.5867 151.033 60.816C150.819 61.04 150.713 61.3627 150.713 61.784C150.713 62.2053 150.817 62.5307 151.025 62.76C151.238 62.984 151.505 63.096 151.825 63.096ZM157.414 59.504C157.942 59.504 158.369 59.672 158.694 60.008C159.02 60.3387 159.182 60.8027 159.182 61.4V64H158.062V61.552C158.062 61.2 157.974 60.9307 157.798 60.744C157.622 60.552 157.382 60.456 157.078 60.456C156.769 60.456 156.524 60.552 156.342 60.744C156.166 60.9307 156.078 61.2 156.078 61.552V64H154.958V59.568H156.078V60.12C156.228 59.928 156.417 59.7787 156.646 59.672C156.881 59.56 157.137 59.504 157.414 59.504ZM161.943 64.072C161.581 64.072 161.255 64.008 160.967 63.88C160.679 63.7467 160.45 63.568 160.279 63.344C160.114 63.12 160.023 62.872 160.007 62.6H161.135C161.157 62.7707 161.239 62.912 161.383 63.024C161.533 63.136 161.717 63.192 161.935 63.192C162.149 63.192 162.314 63.1493 162.431 63.064C162.554 62.9787 162.615 62.8693 162.615 62.736C162.615 62.592 162.541 62.4853 162.391 62.416C162.247 62.3413 162.015 62.2613 161.695 62.176C161.365 62.096 161.093 62.0133 160.879 61.928C160.671 61.8427 160.49 61.712 160.335 61.536C160.186 61.36 160.111 61.1227 160.111 60.824C160.111 60.5787 160.181 60.3547 160.319 60.152C160.463 59.9493 160.666 59.7893 160.927 59.672C161.194 59.5547 161.506 59.496 161.863 59.496C162.391 59.496 162.813 59.6293 163.127 59.896C163.442 60.1573 163.615 60.512 163.647 60.96H162.575C162.559 60.784 162.485 60.6453 162.351 60.544C162.223 60.4373 162.05 60.384 161.831 60.384C161.629 60.384 161.471 60.4213 161.359 60.496C161.253 60.5707 161.199 60.6747 161.199 60.808C161.199 60.9573 161.274 61.072 161.423 61.152C161.573 61.2267 161.805 61.304 162.119 61.384C162.439 61.464 162.703 61.5467 162.911 61.632C163.119 61.7173 163.298 61.8507 163.447 62.032C163.602 62.208 163.682 62.4427 163.687 62.736C163.687 62.992 163.615 63.2213 163.471 63.424C163.333 63.6267 163.13 63.7867 162.863 63.904C162.602 64.016 162.295 64.072 161.943 64.072ZM167.633 60.208C167.777 60.0053 167.974 59.8373 168.225 59.704C168.481 59.5653 168.772 59.496 169.097 59.496C169.476 59.496 169.817 59.5893 170.121 59.776C170.43 59.9627 170.673 60.2293 170.849 60.576C171.03 60.9173 171.121 61.3147 171.121 61.768C171.121 62.2213 171.03 62.624 170.849 62.976C170.673 63.3227 170.43 63.592 170.121 63.784C169.817 63.976 169.476 64.072 169.097 64.072C168.772 64.072 168.484 64.0053 168.233 63.872C167.988 63.7387 167.788 63.5707 167.633 63.368V66.112H166.513V59.568H167.633V60.208ZM169.977 61.768C169.977 61.5013 169.921 61.272 169.809 61.08C169.702 60.8827 169.558 60.7333 169.377 60.632C169.201 60.5307 169.009 60.48 168.801 60.48C168.598 60.48 168.406 60.5333 168.225 60.64C168.049 60.7413 167.905 60.8907 167.793 61.088C167.686 61.2853 167.633 61.5173 167.633 61.784C167.633 62.0507 167.686 62.2827 167.793 62.48C167.905 62.6773 168.049 62.8293 168.225 62.936C168.406 63.0373 168.598 63.088 168.801 63.088C169.009 63.088 169.201 63.0347 169.377 62.928C169.558 62.8213 169.702 62.6693 169.809 62.472C169.921 62.2747 169.977 62.04 169.977 61.768ZM173.783 62.968L174.903 59.568H176.095L174.455 64H173.095L171.463 59.568H172.663L173.783 62.968ZM178.028 60.488V62.632C178.028 62.7813 178.063 62.8907 178.132 62.96C178.207 63.024 178.329 63.056 178.5 63.056H179.02V64H178.316C177.372 64 176.9 63.5413 176.9 62.624V60.488H176.372V59.568H176.9V58.472H178.028V59.568H179.02V60.488H178.028ZM180.321 64.056C180.119 64.056 179.951 63.9947 179.817 63.872C179.689 63.744 179.625 63.5867 179.625 63.4C179.625 63.2133 179.689 63.0587 179.817 62.936C179.951 62.808 180.119 62.744 180.321 62.744C180.519 62.744 180.681 62.808 180.809 62.936C180.937 63.0587 181.001 63.2133 181.001 63.4C181.001 63.5867 180.937 63.744 180.809 63.872C180.681 63.9947 180.519 64.056 180.321 64.056ZM184.93 58.08V64H183.81V58.08H184.93ZM187.34 60.488V62.632C187.34 62.7813 187.375 62.8907 187.444 62.96C187.519 63.024 187.642 63.056 187.812 63.056H188.332V64H187.628C186.684 64 186.212 63.5413 186.212 62.624V60.488H185.684V59.568H186.212V58.472H187.34V59.568H188.332V60.488H187.34ZM188.85 61.768C188.85 61.32 188.938 60.9227 189.114 60.576C189.295 60.2293 189.541 59.9627 189.85 59.776C190.159 59.5893 190.503 59.496 190.882 59.496C191.17 59.496 191.445 59.56 191.706 59.688C191.967 59.8107 192.175 59.976 192.33 60.184V58.08H193.466V64H192.33V63.344C192.191 63.5627 191.997 63.7387 191.746 63.872C191.495 64.0053 191.205 64.072 190.874 64.072C190.501 64.072 190.159 63.976 189.85 63.784C189.541 63.592 189.295 63.3227 189.114 62.976C188.938 62.624 188.85 62.2213 188.85 61.768ZM192.338 61.784C192.338 61.512 192.285 61.28 192.178 61.088C192.071 60.8907 191.927 60.7413 191.746 60.64C191.565 60.5333 191.37 60.48 191.162 60.48C190.954 60.48 190.762 60.5307 190.586 60.632C190.41 60.7333 190.266 60.8827 190.154 61.08C190.047 61.272 189.994 61.5013 189.994 61.768C189.994 62.0347 190.047 62.2693 190.154 62.472C190.266 62.6693 190.41 62.8213 190.586 62.928C190.767 63.0347 190.959 63.088 191.162 63.088C191.37 63.088 191.565 63.0373 191.746 62.936C191.927 62.8293 192.071 62.68 192.178 62.488C192.285 62.2907 192.338 62.056 192.338 61.784ZM195.056 64.056C194.853 64.056 194.685 63.9947 194.552 63.872C194.424 63.744 194.36 63.5867 194.36 63.4C194.36 63.2133 194.424 63.0587 194.552 62.936C194.685 62.808 194.853 62.744 195.056 62.744C195.253 62.744 195.416 62.808 195.544 62.936C195.672 63.0587 195.736 63.2133 195.736 63.4C195.736 63.5867 195.672 63.744 195.544 63.872C195.416 63.9947 195.253 64.056 195.056 64.056Z" fill="black"/>
</g>
<defs>
<clipPath id="clip0_1_37">
<rect width="226" height="73" fill="white"/>
</clipPath>
</defs>
</svg>
